HIERARCHY
ROOT hip
{
	OFFSET 0.000000 0.000000 0.000000 
	CHANNELS 6 Xposition Yposition Zposition Xrotation Zrotation Yrotation
	JOINT abdomen
	{
		OFFSET 0.000000 3.402643 0.000000 
		CHANNELS 3 Xrotation Zrotation Yrotation
		JOINT chest
		{
			OFFSET 0.000000 8.438565 -0.680529 
			CHANNELS 3 Xrotation Zrotation Yrotation
			JOINT neck
			{
				OFFSET 0.000000 10.207942 -0.272212 
				CHANNELS 3 Xrotation Zrotation Yrotation
				JOINT head
				{
					OFFSET 0.000000 3.130431 0.000000 
					CHANNELS 3 Xrotation Zrotation Yrotation
					End Site
					{
						OFFSET 0.000000 3.130435 0.000000 
					}
				}
			}
			JOINT lCollar
			{
				OFFSET 3.470700 6.669187 -0.816635 
				CHANNELS 3 Yrotation Zrotation Xrotation
				JOINT lShldr
				{
					OFFSET 3.198488 0.000000 0.000000 
					CHANNELS 3 Zrotation Yrotation Xrotation
					JOINT lForeArm
					{
						OFFSET 10.139888 0.000000 0.000000 
						CHANNELS 3 Yrotation Zrotation Xrotation
						JOINT lHand
						{
							OFFSET 8.370511 0.000000 0.000000 
							CHANNELS 3 Zrotation Yrotation Xrotation
							End Site
							{
								OFFSET 4.083176 0.000000 0.000000 
							}
						}
					}
				}
			}
			JOINT rCollar
			{
				OFFSET -3.470700 6.669187 -0.816635 
				CHANNELS 3 Yrotation Zrotation Xrotation
				JOINT rShldr
				{
					OFFSET -3.198488 0.000000 0.000000 
					CHANNELS 3 Zrotation Yrotation Xrotation
					JOINT rForeArm
					{
						OFFSET -10.139888 0.000000 0.000000 
						CHANNELS 3 Yrotation Zrotation Xrotation
						JOINT rHand
						{
							OFFSET -8.370511 0.000000 0.000000 
							CHANNELS 3 Zrotation Yrotation Xrotation
							End Site
							{
								OFFSET -4.083176 0.000000 0.000000 
							}
						}
					}
				}
			}
		}
	}
	JOINT lThigh
	{
		OFFSET 5.308129 -1.633274 1.361059 
		CHANNELS 3 Xrotation Zrotation Yrotation
		JOINT lShin
		{
			OFFSET -2.041588 -20.007561 0.000000 
			CHANNELS 3 Xrotation Zrotation Yrotation
			JOINT lFoot
			{
				OFFSET 0.000000 -19.190928 -1.224953 
				CHANNELS 3 Xrotation Yrotation Zrotation
				End Site
				{
					OFFSET 0.000000 -2.449906 4.627600 
				}
			}
		}
	}
	JOINT rThigh
	{
		OFFSET -5.308129 -1.633274 1.361059 
		CHANNELS 3 Xrotation Zrotation Yrotation
		JOINT rShin
		{
			OFFSET 2.041588 -20.007561 0.000000 
			CHANNELS 3 Xrotation Zrotation Yrotation
			JOINT rFoot
			{
				OFFSET 0.000000 -19.190928 -1.224953 
				CHANNELS 3 Xrotation Yrotation Zrotation
				End Site
				{
					OFFSET 0.000000 -2.449906 4.627600 
				}
			}
		}
	}
}
MOTION
Frames: 11
Frame Time: 0.033333
0.650109 38.388813 -0.664365 -8.125000 -4.013671 -81.669922 0.000000 0.000000 0.000000 -0.517578 -2.041016 5.292969 26.445313 -12.500001 14.470541 -20.117188 6.757813 -3.535156 18.720705 -25.000000 -1.333762 -44.394531 14.990235 -46.328125 -10.068359 -1.787109 30.380859 13.085938 15.087892 -4.628906 25.742189 19.238281 -0.579390 46.259766 -2.294922 -0.146484 -1.835938 12.714843 27.626953 -4.150391 -15.615234 -4.824219 -16.724123 0.096678 11.901953 60.907173 -3.410083 10.267275 -1.051694 0.153016 0.698973 -24.822710 2.890535 18.956440 65.753311 -4.419091 -1.893810 0.848019 -0.137170 1.146891 
0.650109 38.348530 -0.718532 -7.822266 -4.179688 -81.533913 0.000000 0.000000 0.000000 -0.488281 -1.982422 5.361329 26.474609 -11.660156 14.501951 -19.902344 6.562500 -3.797712 19.052734 -24.570314 -1.220703 -45.341797 15.000000 -45.937500 -10.332031 -2.080078 30.458982 13.134765 14.990233 -4.638671 25.849611 19.765625 -0.520880 45.761719 -2.148437 -0.166016 -1.845703 12.695312 27.507620 -4.111328 -15.751953 -4.824219 -16.884850 0.429990 11.333230 61.386204 -3.413331 9.978353 -1.055083 0.159675 0.733043 -24.729599 3.120924 18.489998 65.811165 -4.400294 -1.843392 0.717108 -0.125285 0.995366 
0.650109 38.274998 -0.822513 -7.246094 -4.501953 -81.308594 0.000000 0.000000 0.000000 -0.419922 -1.816406 5.439453 26.591797 -10.546875 14.492187 -19.765625 6.582031 -4.383646 19.453127 -23.330080 -1.011758 -46.796875 15.048828 -45.729885 -10.849609 -2.392578 31.054688 12.919922 14.687501 -4.697266 25.986328 20.566408 -0.423352 44.980469 -1.748047 -0.488577 -1.855469 12.539062 27.185377 -4.189453 -15.966799 -4.804688 -17.113499 1.004400 10.223604 62.148808 -3.400938 9.419810 -1.098001 0.168053 0.778395 -24.535645 3.600533 17.587559 65.854431 -4.409322 -1.713250 0.704362 -0.124363 0.808179 
0.650109 38.200634 -0.939800 -6.591797 -4.853516 -81.114113 0.000000 0.000000 0.000000 -0.332031 -1.582031 5.449218 26.796875 -9.726562 14.511719 -19.814453 6.953125 -5.028115 19.628906 -22.363283 -0.826362 -48.085934 15.273438 -45.817738 -11.679688 -2.617188 31.982418 12.421876 14.414063 -4.743663 26.093750 21.308592 -0.341798 44.267578 -1.240234 -0.996303 -1.875000 12.294923 26.748049 -4.394532 -16.103516 -4.785157 -17.389612 1.688987 9.056050 62.955486 -3.343954 8.729440 -1.046541 0.121739 0.739182 -24.347719 4.145442 16.646446 65.875717 -4.410017 -1.510076 0.774483 -0.071780 0.660912 
0.625040 38.141521 -1.048796 -5.976563 -5.156250 -80.957901 0.000000 0.000000 0.000000 -0.253906 -1.347656 5.419921 26.962891 -9.159535 14.521182 -19.882813 7.412109 -5.516318 19.541014 -21.689451 -0.732422 -49.208984 15.654299 -45.791016 -12.871094 -2.900391 32.822754 11.845703 14.306640 -4.765625 26.103516 21.845705 -0.355197 43.828121 -0.703125 -1.484375 -1.894531 12.050782 26.306555 -4.619141 -16.171875 -4.775390 -17.692705 2.313720 7.968614 63.668148 -3.353794 8.152711 -0.870485 0.185630 0.627183 -24.198198 4.628259 15.782590 65.866165 -4.409840 -1.267950 0.582426 -0.100597 0.462806 
0.598644 38.094082 -1.150484 -5.380860 -5.439453 -80.781250 0.000000 0.000000 0.000000 -0.175781 -1.162109 5.361329 27.089846 -8.408203 14.510291 -19.746092 7.626953 -5.858079 19.394531 -20.761719 -0.644531 -50.556644 16.064453 -44.941406 -14.335937 -3.291015 33.125561 11.455078 14.306641 -4.772978 26.005857 22.373047 -0.371094 43.525391 -0.224609 -1.894569 -1.904297 11.835938 25.947266 -4.873047 -16.259766 -4.768359 -18.026518 2.880674 6.845069 64.329414 -3.333710 7.753159 -0.579282 0.188315 0.417842 -23.940943 5.036211 14.838029 65.768127 -4.380865 -1.220975 0.051376 -0.045627 -0.006835 
0.567607 38.077045 -1.253875 -4.736328 -5.820313 -80.508804 0.000000 0.000000 0.000000 -0.107422 -0.976563 5.322266 27.275393 -7.324219 14.432346 -19.531250 7.568360 -6.171875 19.238281 -19.453127 -0.553389 -52.265621 16.445313 -43.005051 -16.005859 -3.642578 32.725227 11.357422 14.248047 -4.792517 25.849611 23.076174 -0.384686 43.183594 0.087891 -2.226547 -1.923828 11.640625 25.681623 -5.302734 -16.289064 -4.758599 -18.263542 3.376699 5.506042 64.978264 -3.305504 7.293314 -0.328891 0.216297 0.166376 -23.533817 5.429497 13.705550 65.598312 -4.379721 -1.133386 -0.594224 -0.052534 -0.627207 
0.533182 38.067509 -1.357632 -4.033203 -6.328125 -80.175781 0.000000 0.000000 0.000000 -0.029297 -0.742188 5.263672 27.646482 -6.181640 14.316407 -19.482422 7.412109 -6.473350 19.013672 -18.007811 -0.426668 -54.111328 16.884766 -39.811615 -18.007813 -3.681640 31.201176 11.396484 14.082030 -4.814453 25.615234 23.984377 -0.394595 42.783203 0.224609 -2.460939 -1.933594 11.474609 25.536371 -5.927735 -16.103516 -4.736328 -18.419735 3.913826 3.875647 65.589272 -3.294905 6.621131 -0.116738 0.213049 -0.086151 -23.029631 5.844717 12.536033 65.279480 -4.331917 -0.919715 -0.795502 -0.013949 -1.178271 
0.497547 38.065723 -1.456860 -3.281250 -6.835937 -79.786316 0.000000 0.000000 0.000000 0.058594 -0.439453 5.175707 28.017578 -5.087891 14.179686 -19.501953 7.255858 -6.767579 18.681641 -16.494141 -0.329259 -56.103516 17.353514 -35.065445 -20.498047 -3.125000 28.252485 11.308593 13.886719 -4.824218 25.253908 24.931643 -0.433803 42.382813 0.322266 -2.548773 -1.943359 11.386720 25.466824 -6.621094 -15.878907 -4.736329 -18.545727 4.460246 2.143101 66.111610 -3.257774 5.694897 0.188143 0.187623 -0.263227 -22.580437 6.304245 11.290285 65.004440 -4.312241 -0.617493 -0.724146 -0.027198 -1.214514 
0.463601 38.071316 -1.553692 -2.460938 -7.333984 -79.288353 0.000000 0.000000 0.000000 0.117188 -0.117187 5.068341 28.203125 -3.876953 13.984376 -19.267580 7.050781 -7.099610 18.300781 -14.775393 -0.261181 -58.398438 17.685547 -29.296877 -23.261719 -1.943359 24.746424 11.083985 13.828126 -4.841414 24.853516 25.000000 -0.502174 42.011719 0.449219 -2.714844 -1.943359 11.279297 25.369184 -7.226563 -15.839844 -4.726563 -18.726152 5.018058 0.369594 66.556076 -3.217925 4.776746 0.543343 0.235365 -0.276915 -22.194311 6.755906 10.003209 64.698593 -4.272897 -0.497118 -0.636957 -0.059186 -0.797352 
0.434002 38.084431 -1.651419 -1.601563 -7.792969 -78.710938 0.000000 0.000000 0.000000 0.195313 0.224609 4.990276 28.291016 -2.626953 13.749552 -18.906250 6.933594 -7.548829 17.832029 -13.076172 -0.214844 -60.732422 17.851563 -24.501953 -25.898436 -0.732422 22.646608 10.976563 13.964845 -4.831626 24.501951 24.999998 -0.595702 41.630859 0.458984 -3.076092 -1.962891 11.093751 25.146484 -7.753907 -15.937500 -4.707031 -18.907835 5.534561 -1.471996 66.912910 -3.200116 4.126111 0.826340 0.259141 -0.258000 -21.800278 7.213313 8.583630 64.327766 -4.262079 -0.510346 -0.660751 -0.077270 -0.385704 
